<svg width="74" height="74" viewBox="0 0 74 74" fill="none" xmlns="http://www.w3.org/2000/svg">
<path fill-rule="evenodd" clip-rule="evenodd" d="M9.33333 9.33333H67.6667V67.6667H61.833V73.5H67.6667C70.8883 73.5 73.5 70.8883 73.5 67.6667V9.33333C73.5 6.11167 70.8883 3.5 67.6667 3.5H9.33333C6.11167 3.5 3.5 6.11168 3.5 9.33334V67.6667C3.5 70.8883 6.11168 73.5 9.33334 73.5H15.1664V67.6667H9.33333V9.33333Z" fill="#87898D"/>
<path fill-rule="evenodd" clip-rule="evenodd" d="M9.33333 26.8333H67.6667V67.6667H9.33333V26.8333ZM3.5 26.8333C3.5 23.6117 6.11167 21 9.33333 21H67.6667C70.8883 21 73.5 23.6117 73.5 26.8333V67.6667C73.5 70.8883 70.8883 73.5 67.6667 73.5H9.33334C6.11168 73.5 3.5 70.8883 3.5 67.6667V26.8333Z" fill="#1783EF"/>
<rect x="28.2918" y="34.1251" width="20.4167" height="2.91667" rx="1.45833" stroke="#ADD1FB" stroke-width="2.91667"/>
</svg>
