<svg width="32" height="32" viewBox="0 0 32 32" fill="none" xmlns="http://www.w3.org/2000/svg">
<mask id="path-1-inside-1" fill="white">
<path fill-rule="evenodd" clip-rule="evenodd" d="M16 18C16 20.2091 14.2091 22 12 22C9.79086 22 8 20.2091 8 18C8 15.7909 9.79086 14 12 14C14.2091 14 16 15.7909 16 18ZM15.4766 22.8907C14.4958 23.5892 13.2959 24 12 24C8.68629 24 6 21.3137 6 18C6 14.6863 8.68629 12 12 12C15.3137 12 18 14.6863 18 18C18 19.2958 17.5892 20.4956 16.8908 21.4764L20.0079 24.5935L18.5937 26.0078L15.4766 22.8907Z"/>
</mask>
<path fill-rule="evenodd" clip-rule="evenodd" d="M16 18C16 20.2091 14.2091 22 12 22C9.79086 22 8 20.2091 8 18C8 15.7909 9.79086 14 12 14C14.2091 14 16 15.7909 16 18ZM15.4766 22.8907C14.4958 23.5892 13.2959 24 12 24C8.68629 24 6 21.3137 6 18C6 14.6863 8.68629 12 12 12C15.3137 12 18 14.6863 18 18C18 19.2958 17.5892 20.4956 16.8908 21.4764L20.0079 24.5935L18.5937 26.0078L15.4766 22.8907Z" fill="#87898D"/>
<path d="M15.4766 22.8907L16.8908 21.4765L15.6945 20.2802L14.3165 21.2616L15.4766 22.8907ZM16.8908 21.4764L15.2617 20.3163L14.2803 21.6944L15.4766 22.8907L16.8908 21.4764ZM20.0079 24.5935L21.4221 26.0078L22.8363 24.5935L21.4221 23.1793L20.0079 24.5935ZM18.5937 26.0078L17.1795 27.422L18.5937 28.8362L20.0079 27.422L18.5937 26.0078ZM12 24C15.3137 24 18 21.3137 18 18H14C14 19.1046 13.1046 20 12 20V24ZM6 18C6 21.3137 8.68629 24 12 24V20C10.8954 20 10 19.1046 10 18H6ZM12 12C8.68629 12 6 14.6863 6 18H10C10 16.8954 10.8954 16 12 16V12ZM18 18C18 14.6863 15.3137 12 12 12V16C13.1046 16 14 16.8954 14 18H18ZM12 26C13.7253 26 15.3284 25.4516 16.6368 24.5198L14.3165 21.2616C13.6632 21.7268 12.8665 22 12 22V26ZM4 18C4 22.4183 7.58172 26 12 26V22C9.79086 22 8 20.2091 8 18H4ZM12 10C7.58172 10 4 13.5817 4 18H8C8 15.7909 9.79086 14 12 14V10ZM20 18C20 13.5817 16.4183 10 12 10V14C14.2091 14 16 15.7909 16 18H20ZM18.52 22.6366C19.4516 21.3282 20 19.7252 20 18H16C16 18.8664 15.7268 19.6631 15.2617 20.3163L18.52 22.6366ZM15.4766 22.8907L18.5937 26.0078L21.4221 23.1793L18.305 20.0622L15.4766 22.8907ZM18.5937 23.1793L17.1795 24.5935L20.0079 27.422L21.4221 26.0078L18.5937 23.1793ZM20.0079 24.5935L16.8908 21.4765L14.0624 24.3049L17.1795 27.422L20.0079 24.5935Z" fill="#1783EF" mask="url(#path-1-inside-1)"/>
<path fill-rule="evenodd" clip-rule="evenodd" d="M4 10H28V22H22V24H28C29.1046 24 30 23.1046 30 22V10C30 8.89543 29.1046 8 28 8H4C2.89543 8 2 8.89543 2 10V22H4V10Z" fill="#87898D"/>
</svg>
