<?xml version="1.0" encoding="UTF-8"?>
<svg viewBox="0 0 189 188" xmlns="http://www.w3.org/2000/svg">
<path d="m94.328 0c-51.915 0-94 42.085-94 94 0 51.915 42.085 94 94 94 51.915 0 94-42.085 94-94 0-51.915-42.085-94-94-94zm1e-4 8c47.497 0 86 38.504 86 86 0 47.496-38.503 86-86 86-47.496 0-86-38.504-86-86 0-47.496 38.503-86 86-86z" clip-rule="evenodd" fill="#CED4DA" fill-rule="evenodd"/>
<path d="m3.5158 118.35c-0.57095-2.134 0.69623-4.326 2.8303-4.897 2.1341-0.571 4.327 0.696 4.8979 2.83 9.9782 37.297 43.913 63.713 83.085 63.713 47.497 0 86-38.504 86-86 0-47.496-38.503-86-86-86-2.2091 0-4-1.7909-4-4s1.7909-4 4-4c51.915 0 94 42.085 94 94 0 51.915-42.085 94-94 94-42.816 0-79.905-28.871-90.813-69.646z" clip-rule="evenodd" fill="#1068EB" fill-rule="evenodd"/>
</svg>
