<svg width="24" height="24" viewBox="0 0 24 24" fill="none" xmlns="http://www.w3.org/2000/svg">
<path fill-rule="evenodd" clip-rule="evenodd" d="M4.60865 15.3586L2.95196 15.9434C1.65358 16.4016 1.6069 18.2206 2.88007 18.7449L11.4286 22.2649C11.7945 22.4155 12.205 22.4155 12.5709 22.2649L21.1194 18.7449C22.3926 18.2206 22.3459 16.4016 21.0475 15.9434L19.3914 15.3588C19.0273 15.7817 18.6275 16.1729 18.1968 16.5279L20.5483 17.3578L11.9997 20.8778L3.45119 17.3578L5.80321 16.5277C5.37247 16.1727 4.97273 15.7815 4.60865 15.3586Z" fill="#87898D"/>
<path d="M11.25 8.25006C7.5 5.25006 5.25 7.75006 4.5 9.75006L5.25 9.75006L4.5 10.5001C7.5 7.50006 9.75 9.75006 13.5 11.2501C16.3406 12.3863 18.25 12.0001 18.75 11.2501C17.75 11.5001 15.2255 11.4305 11.25 8.25006Z" fill="#1783EF"/>
<path d="M10.5 14.2501C9.56827 13.9395 10.75 15.2501 11.25 15.7501H12.75C13.75 15.7501 15.9 15.6001 16.5 15.0001C15 15.7501 12.75 15.0001 10.5 14.2501Z" fill="#1783EF"/>
<path d="M6 4.50004C8.25 1.50008 12 3.00006 14.25 5.25008C16.4366 7.43669 18.75 9.00006 19.5 8.25006M4.5 9.75006C5.25 7.75006 7.5 5.25006 11.25 8.25006C15.2255 11.4305 17.75 11.5001 18.75 11.2501C18.25 12.0001 16.3406 12.3863 13.5 11.2501C9.75 9.75006 7.5 7.50006 4.5 10.5001L5.25 9.75006L4.5 9.75006ZM11.25 15.7501C10.75 15.2501 9.56827 13.9395 10.5 14.2501C12.75 15.0001 15 15.7501 16.5 15.0001C15.9 15.6001 13.75 15.7501 12.75 15.7501H11.25Z" stroke="#1783EF" stroke-width="1.5" stroke-linejoin="bevel"/>
<circle cx="12" cy="9" r="7.5" stroke="#1783EF" stroke-width="1.5"/>
</svg>
