<svg width="24" height="24" viewBox="0 0 24 24" fill="none" xmlns="http://www.w3.org/2000/svg">
<path fill-rule="evenodd" clip-rule="evenodd" d="M16.5 4.5H7.5V6H16.5V4.5ZM18 7.5V16.5H19.5V7.5H18ZM16.5 19.5V18H7.5V19.5H16.5ZM4.5 16.5H6V7.5H4.5V16.5Z" fill="#1783EF"/>
<rect x="17.25" y="3.75" width="3" height="3" rx="0.75" stroke="#1783EF" stroke-width="1.5"/>
<rect x="17.25" y="17.25" width="3" height="3" rx="0.75" stroke="#1783EF" stroke-width="1.5"/>
<rect x="3.75" y="17.25" width="3" height="3" rx="0.75" stroke="#1783EF" stroke-width="1.5"/>
<path d="M4.5 3.75H6C6.41421 3.75 6.75 4.08579 6.75 4.5V6C6.75 6.41421 6.41421 6.75 6 6.75H4.5C4.08579 6.75 3.75 6.41421 3.75 6V4.5C3.75 4.08579 4.08579 3.75 4.5 3.75Z" stroke="#1783EF" stroke-width="1.5"/>
</svg>
