<svg width="30" height="30" viewBox="0 0 30 30" fill="none" xmlns="http://www.w3.org/2000/svg">
<g filter="url(#filter0_d)">
<rect x="3" y="3" width="24" height="24" rx="2" fill="white"/>
</g>
<path d="M15.4684 21.5H15.4675C15.2089 18.1981 14.2528 16.3501 13.3322 14.9938C13.1416 14.7131 12.9523 14.4529 12.7773 14.2125C12.7361 14.1559 12.6957 14.1005 12.6563 14.0461C12.4462 13.7561 12.2628 13.4958 12.1089 13.2384C11.8077 12.7343 11.63 12.2578 11.63 11.6613C11.63 10.3189 11.9828 9.28569 12.5983 8.59411C13.2063 7.91097 14.1247 7.5 15.3906 7.5C16.6562 7.5 17.5616 7.91054 18.1579 8.59118C18.7629 9.28173 19.1063 10.3153 19.1063 11.6613C19.1063 12.2361 18.9296 12.7028 18.6288 13.2071C18.4754 13.4643 18.2936 13.725 18.0863 14.0172C18.0633 14.0497 18.04 14.0825 18.0164 14.1156C17.8306 14.3772 17.6282 14.6621 17.4253 14.9735C16.5337 16.3419 15.6432 18.2073 15.5134 21.5H15.5129H15.5101H15.5074H15.5046H15.5018H15.499H15.4962H15.4935H15.4907H15.4879H15.4851H15.4823H15.4796H15.4768H15.474H15.4712H15.4684Z" fill="#909090" stroke="black"/>
<defs>
<filter id="filter0_d" x="0" y="0" width="30" height="30" filterUnits="userSpaceOnUse" color-interpolation-filters="sRGB">
<feFlood flood-opacity="0" result="BackgroundImageFix"/>
<feColorMatrix in="SourceAlpha" type="matrix" values="0 0 0 0 0 0 0 0 0 0 0 0 0 0 0 0 0 0 127 0" result="hardAlpha"/>
<feOffset/>
<feGaussianBlur stdDeviation="1.5"/>
<feComposite in2="hardAlpha" operator="out"/>
<feColorMatrix type="matrix" values="0 0 0 0 0 0 0 0 0 0 0 0 0 0 0 0 0 0 0.25 0"/>
<feBlend mode="normal" in2="BackgroundImageFix" result="effect1_dropShadow"/>
<feBlend mode="normal" in="SourceGraphic" in2="effect1_dropShadow" result="shape"/>
</filter>
</defs>
</svg>
