<svg width="24" height="24" viewBox="0 0 24 24" fill="none" xmlns="http://www.w3.org/2000/svg">
<path fill-rule="evenodd" clip-rule="evenodd" d="M9.75 3.28354C6.58738 4.09754 4.09754 6.58738 3.28354 9.75H4.5C4.61405 9.75 4.72513 9.76273 4.83189 9.78684C5.5604 7.42456 7.42456 5.5604 9.78684 4.83188C9.76273 4.72512 9.75 4.61405 9.75 4.5V3.28354ZM14.2132 4.83189C14.2373 4.72513 14.25 4.61405 14.25 4.5V3.28354C17.4126 4.09754 19.9025 6.58738 20.7165 9.75H19.5C19.386 9.75 19.2749 9.76273 19.1681 9.78684C18.4396 7.42455 16.5754 5.5604 14.2132 4.83189ZM19.1681 14.2132C18.4396 16.5754 16.5754 18.4396 14.2132 19.1681C14.2373 19.2749 14.25 19.3859 14.25 19.5V20.7165C17.4126 19.9025 19.9025 17.4126 20.7165 14.25H19.5C19.386 14.25 19.2749 14.2373 19.1681 14.2132ZM9.75 20.7165V19.5C9.75 19.3859 9.76273 19.2749 9.78684 19.1681C7.42455 18.4396 5.5604 16.5754 4.83189 14.2132C4.72513 14.2373 4.61405 14.25 4.5 14.25H3.28354C4.09754 17.4126 6.58738 19.9025 9.75 20.7165Z" fill="#1783EF"/>
<path d="M19.5 10.5H21C21.4142 10.5 21.75 10.8358 21.75 11.25V12.75C21.75 13.1642 21.4142 13.5 21 13.5H19.5C19.0858 13.5 18.75 13.1642 18.75 12.75V11.25C18.75 10.8358 19.0858 10.5 19.5 10.5Z" stroke="#1783EF" stroke-width="1.5"/>
<path d="M3 10.5H4.5C4.91421 10.5 5.25 10.8358 5.25 11.25V12.75C5.25 13.1642 4.91421 13.5 4.5 13.5H3C2.58579 13.5 2.25 13.1642 2.25 12.75V11.25C2.25 10.8358 2.58579 10.5 3 10.5Z" stroke="#1783EF" stroke-width="1.5"/>
<path d="M11.25 18.75H12.75C13.1642 18.75 13.5 19.0858 13.5 19.5V21C13.5 21.4142 13.1642 21.75 12.75 21.75H11.25C10.8358 21.75 10.5 21.4142 10.5 21V19.5C10.5 19.0858 10.8358 18.75 11.25 18.75ZM11.25 2.25H12.75C13.1642 2.25 13.5 2.58579 13.5 3V4.5C13.5 4.91421 13.1642 5.25 12.75 5.25H11.25C10.8358 5.25 10.5 4.91421 10.5 4.5V3C10.5 2.58579 10.8358 2.25 11.25 2.25Z" stroke="#1783EF" stroke-width="1.5"/>
</svg>
