<svg width="24" height="24" viewBox="0 0 24 24" fill="none" xmlns="http://www.w3.org/2000/svg">
<path fill-rule="evenodd" clip-rule="evenodd" d="M15.75 1.5C16.0134 1.5 16.2576 1.63822 16.3931 1.86413L19.7681 7.48913L21.789 10.8573C21.7402 10.8209 21.6885 10.786 21.6338 10.7529C21.0241 10.3843 20.4187 10.4458 19.9386 10.6887L18.4819 8.26087L15.75 3.70774L12.425 9.24935C11.9101 9.11299 11.3734 9.03003 10.8213 9.00676L15.1069 1.86413C15.2424 1.63822 15.4866 1.5 15.75 1.5ZM16.3567 15.1907C15.7593 12.5066 13.364 10.5 10.5 10.5C7.18629 10.5 4.5 13.1863 4.5 16.5C4.5 19.8137 7.18629 22.5 10.5 22.5C12.8297 22.5 14.8493 21.1722 15.8433 19.2322C15.3054 18.8922 15 18.2779 15 17.6804C15 17.1471 15.2228 16.7547 15.3683 16.5396L15.3845 16.5155L16.3567 15.1907ZM3 15V6H10.8761L11.7761 4.5H2.25C1.83579 4.5 1.5 4.83579 1.5 5.25V15.75C1.5 16.1642 1.83579 16.5 2.25 16.5H3V15ZM6 16.5C6 18.9853 8.01472 21 10.5 21C12.9853 21 15 18.9853 15 16.5C15 14.0147 12.9853 12 10.5 12C8.01472 12 6 14.0147 6 16.5Z" fill="#1783EF"/>
<path d="M16.796 18H19.1231L17.9641 21.9592C17.8038 22.4434 18.2437 22.7019 18.5233 22.307L22.3931 17.1205C22.463 17.0218 22.5 16.9277 22.5 16.8196C22.5 16.641 22.3808 16.5 22.2081 16.5H19.881L20.9737 12.5395C21.13 12.0553 20.6942 11.7968 20.4146 12.1963L16.611 17.3795C16.5411 17.4829 16.5 17.577 16.5 17.6804C16.5 17.8637 16.6233 18 16.796 18Z" fill="#E98223"/>
</svg>
