<svg width="24" height="24" viewBox="0 0 24 24" fill="none" xmlns="http://www.w3.org/2000/svg">
<path fill-rule="evenodd" clip-rule="evenodd" d="M13.5 4.93515L8.99124 5.8369C8.99703 5.89047 9 5.94489 9 6V7.36486L13.569 6.45106C13.5242 6.30869 13.5 6.15717 13.5 6V4.93515ZM16.0365 7.5H16.5C16.8917 7.5 17.2484 7.34986 17.5155 7.10398L19.9635 12H19.5C19.1083 12 18.7516 12.1501 18.4845 12.396L16.0365 7.5ZM18 14.2094L8.81188 17.2721C8.93173 17.4877 9 17.7359 9 18V18.7906L18.1881 15.7279C18.0683 15.5123 18 15.2641 18 15V14.2094ZM6.27541 16.5H7.5C7.59701 16.5 7.69186 16.5092 7.78374 16.5268L8.82385 8.20592C8.57134 8.67847 8.07322 9 7.5 9H7.21291L6.27541 16.5Z" fill="#1783EF"/>
<mask id="path-2-inside-1" fill="white">
<path fill-rule="evenodd" clip-rule="evenodd" d="M15 4.5H16.5V6H15V4.5ZM13.5 4.5C13.5 3.67157 14.1716 3 15 3H16.5C17.3284 3 18 3.67157 18 4.5V6C18 6.82843 17.3284 7.5 16.5 7.5H15C14.1716 7.5 13.5 6.82843 13.5 6V4.5ZM7.5 6H9V7.5H7.5V6ZM6 6C6 5.17157 6.67157 4.5 7.5 4.5H9C9.82843 4.5 10.5 5.17157 10.5 6V7.5C10.5 8.32843 9.82843 9 9 9H7.5C6.67157 9 6 8.32843 6 7.5V6ZM21 13.5H19.5V15H21V13.5ZM19.5 12C18.6716 12 18 12.6716 18 13.5V15C18 15.8284 18.6716 16.5 19.5 16.5H21C21.8284 16.5 22.5 15.8284 22.5 15V13.5C22.5 12.6716 21.8284 12 21 12H19.5ZM6 18H7.5V19.5H6L6 18ZM4.5 18C4.5 17.1716 5.17157 16.5 6 16.5H7.5C8.32843 16.5 9 17.1716 9 18V19.5C9 20.3284 8.32843 21 7.5 21H6C5.17157 21 4.5 20.3284 4.5 19.5V18Z"/>
</mask>
<path fill-rule="evenodd" clip-rule="evenodd" d="M15 4.5H16.5V6H15V4.5ZM13.5 4.5C13.5 3.67157 14.1716 3 15 3H16.5C17.3284 3 18 3.67157 18 4.5V6C18 6.82843 17.3284 7.5 16.5 7.5H15C14.1716 7.5 13.5 6.82843 13.5 6V4.5ZM7.5 6H9V7.5H7.5V6ZM6 6C6 5.17157 6.67157 4.5 7.5 4.5H9C9.82843 4.5 10.5 5.17157 10.5 6V7.5C10.5 8.32843 9.82843 9 9 9H7.5C6.67157 9 6 8.32843 6 7.5V6ZM21 13.5H19.5V15H21V13.5ZM19.5 12C18.6716 12 18 12.6716 18 13.5V15C18 15.8284 18.6716 16.5 19.5 16.5H21C21.8284 16.5 22.5 15.8284 22.5 15V13.5C22.5 12.6716 21.8284 12 21 12H19.5ZM6 18H7.5V19.5H6L6 18ZM4.5 18C4.5 17.1716 5.17157 16.5 6 16.5H7.5C8.32843 16.5 9 17.1716 9 18V19.5C9 20.3284 8.32843 21 7.5 21H6C5.17157 21 4.5 20.3284 4.5 19.5V18Z" fill="#F7F8FA"/>
<path d="M16.5 4.5H18V3H16.5V4.5ZM15 4.5V3H13.5V4.5H15ZM16.5 6V7.5H18V6H16.5ZM15 6H13.5V7.5H15V6ZM9 6H10.5V4.5H9V6ZM7.5 6V4.5H6V6H7.5ZM9 7.5V9H10.5V7.5H9ZM7.5 7.5H6V9H7.5V7.5ZM19.5 13.5V12H18V13.5H19.5ZM21 13.5H22.5V12H21V13.5ZM19.5 15H18V16.5H19.5V15ZM21 15V16.5H22.5V15H21ZM7.5 18H9V16.5H7.5V18ZM6 18V16.5H4.5L4.5 18L6 18ZM7.5 19.5V21H9V19.5H7.5ZM6 19.5L4.5 19.5L4.5 21H6V19.5ZM16.5 3H15V6H16.5V3ZM18 6V4.5H15V6H18ZM15 7.5H16.5V4.5H15V7.5ZM13.5 4.5V6H16.5V4.5H13.5ZM15 1.5C13.3431 1.5 12 2.84315 12 4.5H15V4.5V1.5ZM16.5 1.5H15V4.5H16.5V1.5ZM19.5 4.5C19.5 2.84315 18.1569 1.5 16.5 1.5V4.5H19.5ZM19.5 6V4.5H16.5V6H19.5ZM16.5 9C18.1569 9 19.5 7.65685 19.5 6H16.5V9ZM15 9H16.5V6H15V9ZM12 6C12 7.65685 13.3431 9 15 9V6H12ZM12 4.5V6H15V4.5H12ZM9 4.5H7.5V7.5H9V4.5ZM10.5 7.5V6H7.5V7.5H10.5ZM7.5 9H9V6H7.5V9ZM6 6V7.5H9V6H6ZM7.5 3C5.84315 3 4.5 4.34315 4.5 6H7.5V3ZM9 3H7.5V6H9V3ZM12 6C12 4.34315 10.6569 3 9 3V6H12ZM12 7.5V6H9V7.5H12ZM9 10.5C10.6569 10.5 12 9.15685 12 7.5H9V10.5ZM7.5 10.5H9V7.5H7.5V10.5ZM4.5 7.5C4.5 9.15685 5.84315 10.5 7.5 10.5V7.5H4.5ZM4.5 6V7.5H7.5V6H4.5ZM19.5 15H21V12H19.5V15ZM21 15V13.5H18V15H21ZM21 13.5H19.5V16.5H21V13.5ZM19.5 13.5V15H22.5V13.5H19.5ZM19.5 13.5V10.5C17.8431 10.5 16.5 11.8431 16.5 13.5H19.5ZM19.5 15V13.5H16.5V15H19.5ZM19.5 15H16.5C16.5 16.6569 17.8431 18 19.5 18V15ZM21 15H19.5V18H21V15ZM21 15V18C22.6569 18 24 16.6569 24 15H21ZM21 13.5V15H24V13.5H21ZM21 13.5H24C24 11.8431 22.6569 10.5 21 10.5V13.5ZM19.5 13.5H21V10.5H19.5V13.5ZM7.5 16.5H6V19.5H7.5V16.5ZM9 19.5V18H6V19.5H9ZM6 21H7.5V18H6V21ZM4.5 18L4.5 19.5L7.5 19.5L7.5 18L4.5 18ZM6 15C4.34315 15 3 16.3431 3 18H6V15ZM7.5 15H6V18H7.5V15ZM10.5 18C10.5 16.3431 9.15685 15 7.5 15V18H10.5ZM10.5 19.5V18H7.5V19.5H10.5ZM7.5 22.5C9.15685 22.5 10.5 21.1569 10.5 19.5H7.5V22.5ZM6 22.5H7.5V19.5H6V22.5ZM3 19.5C3 21.1569 4.34315 22.5 6 22.5V19.5H6H3ZM3 18V19.5H6V18H3Z" fill="#1783EF" mask="url(#path-2-inside-1)"/>
</svg>
